<svg width="22" height="19" viewBox="0 0 22 19" fill="none" xmlns="http://www.w3.org/2000/svg">
<path d="M13.6361 1.05165L13.6353 1.05208C12.9593 1.4045 12.342 1.91369 11.8193 2.53016L11.8193 2.53019C11.6755 2.69971 11.5391 2.87724 11.4108 3.06169L11.0002 3.65191L10.5898 3.06153C10.4614 2.87681 10.325 2.69904 10.1812 2.52929L13.6361 1.05165ZM13.6361 1.05165C14.3117 0.697869 15.0467 0.5 15.8125 0.5C16.5965 0.5 17.3431 0.662711 18.0224 0.956448C18.7016 1.25089 19.314 1.67686 19.8292 2.20415C20.3443 2.732 20.763 3.36101 21.0511 4.05902L21.0514 4.05989C21.3406 4.7567 21.5 5.5255 21.5 6.33333C21.5 7.1409 21.34 7.90985 21.0513 8.60714L21.0511 8.60765C20.7628 9.30607 20.3454 9.9348 19.8296 10.4621L19.8292 10.4625C19.563 10.7353 17.4651 12.69 15.3257 14.6299C14.2596 15.5967 13.19 16.5535 12.342 17.2877C11.9175 17.6552 11.5518 17.9642 11.2711 18.1899C11.1666 18.2739 11.076 18.3447 11 18.4018C10.924 18.3447 10.8334 18.2739 10.7289 18.1899C10.4482 17.9642 10.0825 17.6552 9.65801 17.2877C8.80995 16.5535 7.74035 15.5967 6.67418 14.6299C4.53483 12.6901 2.43657 10.7353 2.1699 10.4623C1.65466 9.93492 1.23712 9.306 0.948094 8.60729M13.6361 1.05165L0.948094 8.60729M0.948094 8.60729C0.65999 7.90984 0.5 7.14082 0.5 6.33333C0.5 5.52585 0.65999 4.75683 0.948094 4.05938L0.948094 8.60729ZM2.1699 2.20437L2.16968 2.20459C1.65414 2.73164 1.23728 3.36033 0.94818 4.05917L2.1699 2.20437ZM2.1699 2.20437C2.68507 1.67706 3.29821 1.25093 3.9778 0.956381L2.1699 2.20437ZM6.1875 0.5C6.95405 0.5 7.68912 0.697888 8.36419 1.05041L3.97801 0.956289C4.65639 0.662699 5.40283 0.5 6.1875 0.5ZM8.36435 1.0505C9.0413 1.40438 9.65794 1.91292 10.1812 2.52925L8.36435 1.0505Z" stroke="#F82462"/>
</svg>
