<svg width="24" height="21" viewBox="0 0 24 21" fill="none" xmlns="http://www.w3.org/2000/svg">
<path d="M14.4042 1.6087C13.6644 1.99433 12.9976 2.54674 12.4379 3.20682C12.2837 3.38867 12.1377 3.57884 12.0004 3.77614C11.8631 3.57858 11.7169 3.38818 11.5627 3.20611C11.0024 2.54604 10.3363 1.99433 9.59581 1.6073C8.85606 1.22096 8.04206 1 7.1875 1C6.33294 1 5.51894 1.17733 4.77919 1.49752C4.03875 1.81841 3.37188 2.28215 2.81225 2.85496C2.25194 3.42778 1.79956 4.11037 1.48606 4.86826C1.17325 5.62544 1 6.45933 1 7.33333C1 8.20733 1.17325 9.04122 1.48606 9.79841C1.79956 10.5563 2.25262 11.2389 2.81225 11.8117C3.37188 12.3845 11.2596 19.6791 12 20C12.7404 19.6791 20.6281 12.3845 21.1871 11.8117C21.7474 11.2389 22.2004 10.5563 22.5133 9.79841C22.8267 9.04122 23 8.20733 23 7.33333C23 6.45933 22.8274 5.62544 22.5133 4.86826C22.2004 4.11037 21.746 3.42778 21.1871 2.85496C20.6274 2.28215 19.9613 1.81841 19.2208 1.49752C18.4804 1.17733 17.6664 1 16.8125 1C15.9586 1 15.1446 1.22096 14.4042 1.6087Z" stroke="white" stroke-linecap="round" stroke-linejoin="round"/>
</svg>
