<svg width="44" height="44" viewBox="0 0 44 44" fill="none" xmlns="http://www.w3.org/2000/svg">
<path d="M16.5 20.5H27.5M16.5 20.5V20.5C16.5 22.7091 18.2909 24.5 20.5 24.5H23.5C25.7091 24.5 27.5 22.7091 27.5 20.5V20.5M16.5 20.5H33H27.5M16.5 20.5H11" stroke="white"/>
<path d="M17.5 23.5C16.3333 24 14 25.6 14 28" stroke="white"/>
<path d="M26.5 23.5C27.6667 24 30 25.6 30 28" stroke="white"/>
<path d="M32.5 19.5H36.5V20.5C36.5 21.6046 35.6046 22.5 34.5 22.5C33.3954 22.5 32.5 21.6046 32.5 20.5V19.5Z" stroke="white" stroke-linecap="round" stroke-linejoin="round"/>
<path d="M7.5 19.5H11.5V20.5C11.5 21.6046 10.6046 22.5 9.5 22.5C8.39543 22.5 7.5 21.6046 7.5 20.5V19.5Z" stroke="white" stroke-linecap="round" stroke-linejoin="round"/>
<rect x="34" y="17" width="1" height="2" fill="white"/>
<rect x="29" y="16" width="11" height="1" rx="0.5" fill="white"/>
<rect x="9" y="17" width="1" height="2" fill="white"/>
<rect x="4" y="16" width="11" height="1" rx="0.5" fill="white"/>
</svg>
