<svg width="150" height="150" viewBox="0 0 150 150" fill="none" xmlns="http://www.w3.org/2000/svg">
<path opacity="0.2" d="M104.309 98.9091C95.3142 119.207 71.2356 128.222 49.3355 118.517C27.4353 108.811 32.031 102.733 41.0262 82.4353C50.0215 62.1375 79.3534 43.8791 101.254 53.5846C123.154 63.29 113.305 78.6114 104.309 98.9091Z" fill="#F82462"/>
<path d="M86.3008 113.645H63.3008L61.3008 107.145L57.8008 104.145L53.8008 97.6453L50.8008 92.6453L46.8008 83.6453L43.3008 79.1453L40.3008 74.1453L41.3008 72.1453L44.3008 70.6453L46.8008 72.1453L49.8008 74.1453L53.8008 79.1453L56.8008 82.6453L59.3008 84.6453L61.3008 82.1453L62.3008 76.1453V60.6453V48.6453V45.6453L64.8008 43.6453H66.8008L70.3008 46.6453V62.6453L70.8008 60.6453L73.8008 59.1453L76.8008 60.6453L77.8008 65.1453L80.3008 63.1453H82.8008L85.3008 65.1453V74.1453L86.8008 70.6453L89.8008 69.6453L91.8008 71.1453L93.3008 74.1453V96.6453L88.3008 106.145V111.645L86.3008 113.645Z" fill="white"/>
<path d="M37.8235 71.9549L37.8525 71.8945C38.9694 69.5702 41.3384 68.1109 43.9159 68.1589C45.2025 68.1635 46.4998 68.718 47.65 69.4118C48.8359 70.1272 50.0327 71.0938 51.1494 72.1338C53.3805 74.2115 55.4381 76.7193 56.629 78.5009L56.6355 78.5105L56.6354 78.5105C57.2753 79.484 58.0141 80.3888 58.8394 81.2109C59.1715 80.0007 59.3251 78.7484 59.2949 77.4924L59.2945 77.4744V77.4563V57.3672C56.0491 55.1847 54.0825 51.5128 54.0962 47.5629C54.0976 40.9936 59.4232 35.6689 65.9928 35.6689C72.5624 35.6689 77.8888 40.9937 77.8901 47.5632M37.8235 71.9549L76.3901 47.5656M37.8235 71.9549L37.8 72.0176C36.9836 74.1954 37.6065 76.6497 39.3584 78.1738C40.4425 79.2788 42.2308 81.949 44.1156 85.2601C45.9931 88.5585 47.8667 92.3146 49.0973 95.3919L49.0974 95.3922C50.9443 100.008 54.9242 104.417 57.8195 107.23C58.7657 108.163 59.2972 109.438 59.2945 110.768V110.771V111.246C59.2945 114.228 61.7115 116.645 64.6935 116.645H85.4869C88.4689 116.645 90.8859 114.228 90.8859 111.246V107.345C93.4888 104.895 94.7713 101.723 95.4113 99.2001C96.066 96.6193 96.0843 94.5766 96.0843 94.3512V73.7896M37.8235 71.9549L84.9033 61.227M77.8901 47.5632C77.8901 47.564 77.8901 47.5648 77.8901 47.5656H76.3901M77.8901 47.5632C77.8901 47.5622 77.8901 47.5611 77.8901 47.5601L76.3901 47.5656M77.8901 47.5632C77.9019 51.0096 76.4062 54.2443 73.8686 56.4626M76.3901 47.5656C76.4038 51.2743 74.4168 54.7022 71.1912 56.5327M73.8686 56.4626C73.4745 56.4597 73.0804 56.4918 72.6912 56.5588V56.5327H71.1912M73.8686 56.4626C73.4979 56.7867 73.1049 57.0891 72.6912 57.3673V58.0876M73.8686 56.4626C74.88 56.4702 75.8917 56.7088 76.8223 57.1808L76.8225 57.1809C78.258 57.9092 79.359 59.1222 79.9562 60.5719M71.1912 56.5327L71.4083 56.9154M71.1912 56.5327L71.4083 56.9154M71.4083 56.9154C71.3355 56.9438 71.2631 56.9735 71.1912 57.0045L71.4083 56.9154ZM72.6912 58.0876C72.1698 58.2048 71.6632 58.4042 71.1912 58.6851L72.6912 58.0876ZM72.6912 58.0876L76.1438 58.5185C77.243 59.0762 78.0887 60.0011 78.5543 61.1073C79.0044 60.8742 79.4749 60.6957 79.9562 60.5719M79.9562 60.5719C81.6042 60.1478 83.3797 60.3643 84.9033 61.227M79.9562 60.5719C80.1457 61.0318 80.2845 61.5155 80.3672 62.0152C81.634 61.6992 82.995 61.8702 84.1644 62.5324M84.9033 61.227L88.2868 67.064M84.9033 61.227C84.9034 61.2271 84.9035 61.2271 84.9035 61.2271L84.1644 62.5324M84.9033 61.227L84.1644 62.5324M84.9033 61.227C86.9746 62.3995 88.2613 64.5846 88.2865 66.9588M84.1644 62.5324C85.7945 63.4551 86.7975 65.1869 86.7868 67.0597M86.7868 67.0597V67.4028C87.1105 67.2641 87.4441 67.1513 87.7844 67.0654L86.7868 67.0597ZM86.7868 67.0597H87.8071C87.9656 67.0202 88.1255 66.9866 88.2865 66.9588M88.2865 66.9588C88.2869 66.9938 88.287 67.0289 88.2868 67.064M88.2865 66.9588C88.804 66.8696 89.3329 66.8411 89.8627 66.8759L89.886 66.8774L89.9092 66.8797C93.4534 67.2237 96.1388 70.2307 96.0843 73.7896M88.2868 67.064V68.4875V67.064ZM96.0843 73.7896V73.7774H94.5843L96.0841 73.8034C96.0841 73.7988 96.0842 73.7942 96.0843 73.7896ZM55.2555 85.5381L55.2521 85.5349C54.0113 84.354 52.9085 83.0361 51.9651 81.606C50.6605 79.6498 48.8568 77.612 47.1724 76.0718C46.33 75.3015 45.5481 74.6839 44.902 74.2693C44.5788 74.0618 44.3152 73.9219 44.1147 73.8379C43.9619 73.774 43.8878 73.7604 43.8779 73.758H43.8773L43.8551 73.7574C43.5859 73.7494 43.3286 73.8438 43.1307 74.014C43.1693 74.061 43.2182 74.1153 43.2797 74.1768L43.2802 74.1773C44.7959 75.6929 46.884 78.8401 48.8799 82.3204C50.9022 85.8468 52.9277 89.8887 54.2974 93.3108L54.2975 93.3112C55.8026 97.0749 59.524 101.081 61.7239 103.217L61.7302 103.223C63.7552 105.212 64.8957 107.933 64.8937 110.772M55.2555 85.5381L63.3937 111.246C63.3937 111.964 63.9755 112.546 64.6935 112.546H85.4869C86.2049 112.546 86.7868 111.964 86.7868 111.246V107.254M55.2555 85.5381C56.5839 86.7945 58.4626 87.2851 60.2359 86.8378C62.0338 86.3887 63.4764 85.0512 64.0618 83.2942L64.0668 83.2791L64.0715 83.264C64.6553 81.3796 64.9333 79.4138 64.8937 77.441V47.5656C64.8937 46.9585 65.3857 46.4664 65.9928 46.4664C66.5999 46.4664 67.092 46.9585 67.092 47.5656V74.8572C67.092 76.4037 68.3454 77.6571 69.8919 77.6571C71.4382 77.6571 72.6912 76.4032 72.6912 74.8572V63.1612C72.6912 62.5543 73.1836 62.0621 73.7903 62.0621C74.3979 62.0621 74.8901 62.5546 74.8901 63.1612V74.8572C74.8901 76.4032 76.1431 77.6571 77.6894 77.6571C79.2359 77.6571 80.4893 76.4037 80.4893 74.8572V67.0597C80.4893 66.4526 80.9813 65.9605 81.5884 65.9605C82.1955 65.9605 82.6876 66.4526 82.6876 67.0597V76.1571C82.6876 77.703 83.941 78.9563 85.4869 78.9563C87.0329 78.9563 88.2868 77.7034 88.2868 76.1571L88.2868 73.5579L88.2868 73.554C88.286 73.2662 88.4007 72.9898 88.6054 72.7868C88.8247 72.5694 89.1228 72.4517 89.4302 72.4597C90.0485 72.5641 90.501 73.1081 90.4856 73.7409L90.4851 73.7591V73.7774V94.3512C90.4851 94.3492 90.4851 94.3502 90.485 94.3542C90.4832 94.4402 90.4533 95.8875 90.0029 97.7157C89.5264 99.6497 88.6235 101.829 86.9652 103.345L86.9566 103.353L86.9482 103.361C85.8752 104.372 85.2728 105.787 85.2868 107.261M55.2555 85.5381L86.7868 107.254M64.8937 110.772L63.3937 110.771H64.8937V110.772ZM64.8937 110.772V111.046M64.8937 111.046H64.6935C64.8039 111.046 64.8937 111.136 64.8937 111.246V111.046ZM64.8937 111.046H85.2868M85.2868 111.046V111.246C85.2868 111.136 85.3765 111.046 85.4869 111.046H85.2868ZM85.2868 111.046V107.261M85.2868 107.261C85.2868 107.264 85.2868 107.267 85.2869 107.271L86.7868 107.254M85.2868 107.261V107.254H86.7868" fill="#252525" stroke="white" stroke-width="3"/>
<path d="M55.5967 58.6631C56.1154 58.6631 56.5842 58.3555 56.79 57.8796C56.9959 57.4037 56.8995 56.851 56.5443 56.4732C52.0415 51.7139 51.797 44.3436 55.975 39.2964C56.2838 38.94 56.3754 38.4444 56.2148 38.0012C56.0535 37.558 55.6651 37.2368 55.1993 37.1618C54.7334 37.0868 54.2641 37.2701 53.972 37.6407C48.9604 43.6969 49.2507 52.5397 54.6496 58.2538C54.8953 58.515 55.2379 58.6631 55.5967 58.6631Z" fill="#252525"/>
<path d="M78.1241 55.2203C78.4305 55.3774 78.7874 55.4066 79.1152 55.3007C79.4436 55.1948 79.7161 54.9633 79.8731 54.6564C82.7144 49.1237 81.9839 42.4298 78.0158 37.6407C77.7243 37.2701 77.2543 37.0868 76.7885 37.1618C76.3233 37.2368 75.9348 37.558 75.7736 38.0012C75.6124 38.4444 75.704 38.94 76.0133 39.2964C79.3199 43.2858 79.9285 48.8625 77.5613 53.4713C77.2335 54.1096 77.4857 54.8926 78.1241 55.2203Z" fill="#252525"/>
</svg>
