<svg width="150" height="150" viewBox="0 0 150 150" fill="none" xmlns="http://www.w3.org/2000/svg">
<path d="M53.5956 34.2471C71.1449 15.328 93.0427 48.3596 102.929 72.196C109.974 89.183 108.459 99.7289 97.3578 118.956C86.257 138.183 61.5639 102.617 40.8188 90.6398C20.0737 78.6626 41.5307 47.2535 53.5956 34.2471Z" fill="#F82462" fill-opacity="0.2"/>
<path d="M42.0039 66.6239H69.0039L76.0039 56.6239L101.004 57.6239L103.004 66.6239V102.624H42.0039V66.6239Z" fill="white"/>
<mask id="path-3-outside-1" maskUnits="userSpaceOnUse" x="38.0039" y="53.3739" width="68" height="54" fill="black">
<rect fill="white" x="38.0039" y="53.3739" width="68" height="54"/>
<path d="M97.7539 55.3739H77.0566C75.8423 55.3739 74.6982 55.9652 73.9961 56.9564L68.6689 64.4779C68.4346 64.8085 68.0532 65.0052 67.6484 65.0052H66.8584V62.9286C66.8584 61.3163 65.5464 60.0043 63.9336 60.0043H58.2407C56.6284 60.0043 55.3164 61.3163 55.3164 62.9286V65.0052H51.7539V63.7543C51.7539 61.6864 50.0718 60.0043 48.0039 60.0043C45.936 60.0043 44.2539 61.6864 44.2539 63.7543V65.0052H43.7539C41.686 65.0052 40.0039 66.6879 40.0039 68.7552V98.3739C40.0039 101.82 42.8076 104.624 46.2539 104.624H100.254C102.322 104.624 104.004 102.942 104.004 100.874V61.6239C104.004 58.1776 101.2 55.3739 97.7539 55.3739ZM57.8164 62.9286C57.8164 62.6947 58.0068 62.5043 58.2407 62.5043H63.9336C64.1675 62.5043 64.3584 62.6947 64.3584 62.9286V65.0043H57.8164V62.9286ZM46.7539 63.7543C46.7539 63.0648 47.3145 62.5043 48.0039 62.5043C48.6934 62.5043 49.2539 63.0648 49.2539 63.7543V65.0043H46.7539V63.7543ZM101.504 93.6239H93.791C94.5908 91.2665 95.0039 88.7811 95.0039 86.2489C95.0039 82.7274 94.1836 79.2582 92.6455 76.1239H101.504V93.6239ZM42.5039 76.1239H51.3628C49.8247 79.2592 49.0039 82.7299 49.0039 86.2489C49.0039 88.7816 49.417 91.2665 50.2168 93.6239H42.5039V76.1239ZM87.2012 89.3031L79.522 81.6244C79.2876 81.39 78.9697 81.2582 78.6382 81.2582C78.3066 81.2582 77.9888 81.39 77.7544 81.6244L69.0444 90.3344L65.1201 86.4095C64.6318 85.9218 63.8403 85.9218 63.3521 86.4095L57.6543 92.1073C56.9136 90.2987 56.5039 88.3212 56.5039 86.2489C56.5039 77.702 63.457 70.7489 72.0039 70.7489C80.5508 70.7489 87.5039 77.702 87.5039 86.2489C87.5039 87.2943 87.3994 88.3153 87.2012 89.3031ZM64.2358 89.0614L73.7554 98.5809C73.9995 98.8251 74.3193 98.9471 74.6392 98.9471C74.959 98.9471 75.2788 98.8251 75.5229 98.5809C76.0112 98.0927 76.0112 97.3011 75.5229 96.8129L70.812 92.1019L78.6382 84.2758L86.3867 92.0248C84.0918 97.7191 78.5103 101.749 72.0039 101.749C66.4644 101.749 61.5947 98.827 58.8535 94.4442L64.2358 89.0614ZM100.254 102.124H80.481C86.1436 99.0878 90.0039 93.1112 90.0039 86.2489C90.0039 76.3236 81.9292 68.2489 72.0039 68.2489C62.0786 68.2489 54.0039 76.3236 54.0039 86.2489C54.0039 93.1112 57.8643 99.0878 63.5269 102.124H46.2539C44.186 102.124 42.5039 100.442 42.5039 98.3739V96.1239H51.2324C51.7231 97.1512 52.2925 98.1464 52.938 99.1014C53.1797 99.4584 53.5737 99.6512 53.9746 99.6512C54.2158 99.6512 54.459 99.5814 54.6738 99.4364C55.2456 99.0497 55.396 98.2728 55.0093 97.701C54.2993 96.6512 53.6934 95.5468 53.1943 94.4008C53.1895 94.3876 53.1836 94.3754 53.1777 94.3627C52.0762 91.8173 51.5039 89.0663 51.5039 86.2489C51.5039 81.601 53.1094 77.0458 56.0239 73.4222C56.4565 72.8846 56.3711 72.0975 55.8335 71.6649C55.2954 71.2323 54.5088 71.3173 54.0757 71.8553C53.6177 72.4247 53.1895 73.016 52.7896 73.6239H42.5039V68.7552C42.5039 68.0658 43.0645 67.5052 43.7539 67.5052H67.6484C68.8628 67.5052 70.0068 66.9139 70.7085 65.9227L76.0361 58.4012C76.27 58.0707 76.6514 57.8739 77.0562 57.8739H97.7539C99.8218 57.8739 101.504 59.556 101.504 61.6239V73.6239H91.2183C90.7915 72.9745 90.332 72.3451 89.8384 71.7396C89.4023 71.2045 88.6147 71.1244 88.0796 71.5604C87.5444 71.9965 87.4644 72.7841 87.9004 73.3192C90.8691 76.9618 92.5039 81.5536 92.5039 86.2489C92.5039 89.0721 91.9287 91.829 90.8223 94.3793C90.8203 94.3827 90.8188 94.3866 90.8174 94.39C90.3228 95.5277 89.7231 96.6249 89.021 97.6683C88.6353 98.2406 88.7871 99.0175 89.3594 99.4032C89.5737 99.5472 89.8164 99.6166 90.0566 99.6166C90.4585 99.6166 90.853 99.4227 91.0947 99.0643C91.73 98.121 92.2905 97.1381 92.7749 96.1239H101.504V100.874C101.504 101.563 100.943 102.124 100.254 102.124Z"/>
</mask>
<path d="M97.7539 55.3739H77.0566C75.8423 55.3739 74.6982 55.9652 73.9961 56.9564L68.6689 64.4779C68.4346 64.8085 68.0532 65.0052 67.6484 65.0052H66.8584V62.9286C66.8584 61.3163 65.5464 60.0043 63.9336 60.0043H58.2407C56.6284 60.0043 55.3164 61.3163 55.3164 62.9286V65.0052H51.7539V63.7543C51.7539 61.6864 50.0718 60.0043 48.0039 60.0043C45.936 60.0043 44.2539 61.6864 44.2539 63.7543V65.0052H43.7539C41.686 65.0052 40.0039 66.6879 40.0039 68.7552V98.3739C40.0039 101.82 42.8076 104.624 46.2539 104.624H100.254C102.322 104.624 104.004 102.942 104.004 100.874V61.6239C104.004 58.1776 101.2 55.3739 97.7539 55.3739ZM57.8164 62.9286C57.8164 62.6947 58.0068 62.5043 58.2407 62.5043H63.9336C64.1675 62.5043 64.3584 62.6947 64.3584 62.9286V65.0043H57.8164V62.9286ZM46.7539 63.7543C46.7539 63.0648 47.3145 62.5043 48.0039 62.5043C48.6934 62.5043 49.2539 63.0648 49.2539 63.7543V65.0043H46.7539V63.7543ZM101.504 93.6239H93.791C94.5908 91.2665 95.0039 88.7811 95.0039 86.2489C95.0039 82.7274 94.1836 79.2582 92.6455 76.1239H101.504V93.6239ZM42.5039 76.1239H51.3628C49.8247 79.2592 49.0039 82.7299 49.0039 86.2489C49.0039 88.7816 49.417 91.2665 50.2168 93.6239H42.5039V76.1239ZM87.2012 89.3031L79.522 81.6244C79.2876 81.39 78.9697 81.2582 78.6382 81.2582C78.3066 81.2582 77.9888 81.39 77.7544 81.6244L69.0444 90.3344L65.1201 86.4095C64.6318 85.9218 63.8403 85.9218 63.3521 86.4095L57.6543 92.1073C56.9136 90.2987 56.5039 88.3212 56.5039 86.2489C56.5039 77.702 63.457 70.7489 72.0039 70.7489C80.5508 70.7489 87.5039 77.702 87.5039 86.2489C87.5039 87.2943 87.3994 88.3153 87.2012 89.3031ZM64.2358 89.0614L73.7554 98.5809C73.9995 98.8251 74.3193 98.9471 74.6392 98.9471C74.959 98.9471 75.2788 98.8251 75.5229 98.5809C76.0112 98.0927 76.0112 97.3011 75.5229 96.8129L70.812 92.1019L78.6382 84.2758L86.3867 92.0248C84.0918 97.7191 78.5103 101.749 72.0039 101.749C66.4644 101.749 61.5947 98.827 58.8535 94.4442L64.2358 89.0614ZM100.254 102.124H80.481C86.1436 99.0878 90.0039 93.1112 90.0039 86.2489C90.0039 76.3236 81.9292 68.2489 72.0039 68.2489C62.0786 68.2489 54.0039 76.3236 54.0039 86.2489C54.0039 93.1112 57.8643 99.0878 63.5269 102.124H46.2539C44.186 102.124 42.5039 100.442 42.5039 98.3739V96.1239H51.2324C51.7231 97.1512 52.2925 98.1464 52.938 99.1014C53.1797 99.4584 53.5737 99.6512 53.9746 99.6512C54.2158 99.6512 54.459 99.5814 54.6738 99.4364C55.2456 99.0497 55.396 98.2728 55.0093 97.701C54.2993 96.6512 53.6934 95.5468 53.1943 94.4008C53.1895 94.3876 53.1836 94.3754 53.1777 94.3627C52.0762 91.8173 51.5039 89.0663 51.5039 86.2489C51.5039 81.601 53.1094 77.0458 56.0239 73.4222C56.4565 72.8846 56.3711 72.0975 55.8335 71.6649C55.2954 71.2323 54.5088 71.3173 54.0757 71.8553C53.6177 72.4247 53.1895 73.016 52.7896 73.6239H42.5039V68.7552C42.5039 68.0658 43.0645 67.5052 43.7539 67.5052H67.6484C68.8628 67.5052 70.0068 66.9139 70.7085 65.9227L76.0361 58.4012C76.27 58.0707 76.6514 57.8739 77.0562 57.8739H97.7539C99.8218 57.8739 101.504 59.556 101.504 61.6239V73.6239H91.2183C90.7915 72.9745 90.332 72.3451 89.8384 71.7396C89.4023 71.2045 88.6147 71.1244 88.0796 71.5604C87.5444 71.9965 87.4644 72.7841 87.9004 73.3192C90.8691 76.9618 92.5039 81.5536 92.5039 86.2489C92.5039 89.0721 91.9287 91.829 90.8223 94.3793C90.8203 94.3827 90.8188 94.3866 90.8174 94.39C90.3228 95.5277 89.7231 96.6249 89.021 97.6683C88.6353 98.2406 88.7871 99.0175 89.3594 99.4032C89.5737 99.5472 89.8164 99.6166 90.0566 99.6166C90.4585 99.6166 90.853 99.4227 91.0947 99.0643C91.73 98.121 92.2905 97.1381 92.7749 96.1239H101.504V100.874C101.504 101.563 100.943 102.124 100.254 102.124Z" fill="#252525"/>
<path d="M97.7539 55.3739H77.0566C75.8423 55.3739 74.6982 55.9652 73.9961 56.9564L68.6689 64.4779C68.4346 64.8085 68.0532 65.0052 67.6484 65.0052H66.8584V62.9286C66.8584 61.3163 65.5464 60.0043 63.9336 60.0043H58.2407C56.6284 60.0043 55.3164 61.3163 55.3164 62.9286V65.0052H51.7539V63.7543C51.7539 61.6864 50.0718 60.0043 48.0039 60.0043C45.936 60.0043 44.2539 61.6864 44.2539 63.7543V65.0052H43.7539C41.686 65.0052 40.0039 66.6879 40.0039 68.7552V98.3739C40.0039 101.82 42.8076 104.624 46.2539 104.624H100.254C102.322 104.624 104.004 102.942 104.004 100.874V61.6239C104.004 58.1776 101.2 55.3739 97.7539 55.3739ZM57.8164 62.9286C57.8164 62.6947 58.0068 62.5043 58.2407 62.5043H63.9336C64.1675 62.5043 64.3584 62.6947 64.3584 62.9286V65.0043H57.8164V62.9286ZM46.7539 63.7543C46.7539 63.0648 47.3145 62.5043 48.0039 62.5043C48.6934 62.5043 49.2539 63.0648 49.2539 63.7543V65.0043H46.7539V63.7543ZM101.504 93.6239H93.791C94.5908 91.2665 95.0039 88.7811 95.0039 86.2489C95.0039 82.7274 94.1836 79.2582 92.6455 76.1239H101.504V93.6239ZM42.5039 76.1239H51.3628C49.8247 79.2592 49.0039 82.7299 49.0039 86.2489C49.0039 88.7816 49.417 91.2665 50.2168 93.6239H42.5039V76.1239ZM87.2012 89.3031L79.522 81.6244C79.2876 81.39 78.9697 81.2582 78.6382 81.2582C78.3066 81.2582 77.9888 81.39 77.7544 81.6244L69.0444 90.3344L65.1201 86.4095C64.6318 85.9218 63.8403 85.9218 63.3521 86.4095L57.6543 92.1073C56.9136 90.2987 56.5039 88.3212 56.5039 86.2489C56.5039 77.702 63.457 70.7489 72.0039 70.7489C80.5508 70.7489 87.5039 77.702 87.5039 86.2489C87.5039 87.2943 87.3994 88.3153 87.2012 89.3031ZM64.2358 89.0614L73.7554 98.5809C73.9995 98.8251 74.3193 98.9471 74.6392 98.9471C74.959 98.9471 75.2788 98.8251 75.5229 98.5809C76.0112 98.0927 76.0112 97.3011 75.5229 96.8129L70.812 92.1019L78.6382 84.2758L86.3867 92.0248C84.0918 97.7191 78.5103 101.749 72.0039 101.749C66.4644 101.749 61.5947 98.827 58.8535 94.4442L64.2358 89.0614ZM100.254 102.124H80.481C86.1436 99.0878 90.0039 93.1112 90.0039 86.2489C90.0039 76.3236 81.9292 68.2489 72.0039 68.2489C62.0786 68.2489 54.0039 76.3236 54.0039 86.2489C54.0039 93.1112 57.8643 99.0878 63.5269 102.124H46.2539C44.186 102.124 42.5039 100.442 42.5039 98.3739V96.1239H51.2324C51.7231 97.1512 52.2925 98.1464 52.938 99.1014C53.1797 99.4584 53.5737 99.6512 53.9746 99.6512C54.2158 99.6512 54.459 99.5814 54.6738 99.4364C55.2456 99.0497 55.396 98.2728 55.0093 97.701C54.2993 96.6512 53.6934 95.5468 53.1943 94.4008C53.1895 94.3876 53.1836 94.3754 53.1777 94.3627C52.0762 91.8173 51.5039 89.0663 51.5039 86.2489C51.5039 81.601 53.1094 77.0458 56.0239 73.4222C56.4565 72.8846 56.3711 72.0975 55.8335 71.6649C55.2954 71.2323 54.5088 71.3173 54.0757 71.8553C53.6177 72.4247 53.1895 73.016 52.7896 73.6239H42.5039V68.7552C42.5039 68.0658 43.0645 67.5052 43.7539 67.5052H67.6484C68.8628 67.5052 70.0068 66.9139 70.7085 65.9227L76.0361 58.4012C76.27 58.0707 76.6514 57.8739 77.0562 57.8739H97.7539C99.8218 57.8739 101.504 59.556 101.504 61.6239V73.6239H91.2183C90.7915 72.9745 90.332 72.3451 89.8384 71.7396C89.4023 71.2045 88.6147 71.1244 88.0796 71.5604C87.5444 71.9965 87.4644 72.7841 87.9004 73.3192C90.8691 76.9618 92.5039 81.5536 92.5039 86.2489C92.5039 89.0721 91.9287 91.829 90.8223 94.3793C90.8203 94.3827 90.8188 94.3866 90.8174 94.39C90.3228 95.5277 89.7231 96.6249 89.021 97.6683C88.6353 98.2406 88.7871 99.0175 89.3594 99.4032C89.5737 99.5472 89.8164 99.6166 90.0566 99.6166C90.4585 99.6166 90.853 99.4227 91.0947 99.0643C91.73 98.121 92.2905 97.1381 92.7749 96.1239H101.504V100.874C101.504 101.563 100.943 102.124 100.254 102.124Z" stroke="white" stroke-width="4" mask="url(#path-3-outside-1)"/>
<path d="M98.2124 63.7543C98.2124 61.6864 96.5303 60.0043 94.4624 60.0043H83.2539C81.186 60.0043 79.5039 61.6864 79.5039 63.7543C79.5039 65.8221 81.186 67.5043 83.2539 67.5043H94.4624C96.5303 67.5043 98.2124 65.8217 98.2124 63.7543ZM95.7124 63.7543C95.7124 64.4432 95.1514 65.0043 94.4624 65.0043H90.1079V62.5043H94.4624C95.1514 62.5043 95.7124 63.0648 95.7124 63.7543ZM82.0039 63.7543C82.0039 63.0648 82.5645 62.5043 83.2539 62.5043H87.6079V65.0043H83.2539C82.5645 65.0043 82.0039 64.4432 82.0039 63.7543Z" fill="#2B2B4D"/>
<path d="M70.2969 74.5824C68.229 74.5824 66.5469 76.2645 66.5469 78.3324C66.5469 80.4003 68.229 82.0824 70.2969 82.0824C72.3647 82.0824 74.0469 80.4003 74.0469 78.3324C74.0469 76.2645 72.3647 74.5824 70.2969 74.5824ZM70.2969 79.5824C69.6079 79.5824 69.0469 79.0214 69.0469 78.3324C69.0469 77.6429 69.6079 77.0824 70.2969 77.0824C70.9863 77.0824 71.5469 77.6429 71.5469 78.3324C71.5469 79.0214 70.9863 79.5824 70.2969 79.5824Z" fill="#2B2B4D"/>
<path d="M88.7539 49.1654C89.4443 49.1654 90.0039 48.6058 90.0039 47.9154V41.8739C90.0039 41.1835 89.4443 40.6239 88.7539 40.6239C88.064 40.6239 87.5039 41.1835 87.5039 41.8739V47.9154C87.5039 48.6058 88.064 49.1654 88.7539 49.1654Z" fill="#2B2B4D"/>
<path d="M88.7539 50.9989C88.4253 50.9989 88.1025 51.1327 87.8706 51.3651C87.6377 51.5975 87.5039 51.9203 87.5039 52.2489C87.5039 52.5775 87.6377 52.9003 87.8706 53.1327C88.1025 53.3651 88.4253 53.4989 88.7539 53.4989C89.083 53.4989 89.4053 53.3651 89.6377 53.1327C89.8701 52.9003 90.0039 52.5775 90.0039 52.2489C90.0039 51.9203 89.8706 51.5975 89.6377 51.3651C89.4053 51.1327 89.083 50.9989 88.7539 50.9989Z" fill="#2B2B4D"/>
<path d="M81.3389 51.9504C81.583 52.1946 81.9028 52.3167 82.2227 52.3167C82.5425 52.3167 82.8623 52.1946 83.1064 51.9504C83.5947 51.4622 83.5947 50.6707 83.1064 50.1824L78.9111 45.9871C78.4229 45.4993 77.6318 45.4993 77.1436 45.9871C76.6553 46.4753 76.6553 47.2668 77.1436 47.7551L81.3389 51.9504Z" fill="#2B2B4D"/>
<path d="M95.3594 52.2055C95.6797 52.2055 95.9996 52.0834 96.2437 51.8393L100.322 47.7578C100.811 47.2695 100.81 46.4785 100.322 45.9902C99.8336 45.5024 99.0425 45.5024 98.5543 45.9907L94.4752 50.0717C93.9874 50.56 93.9874 51.3515 94.4756 51.8398C94.7203 52.0834 95.0396 52.2055 95.3594 52.2055Z" fill="#2B2B4D"/>
</svg>
