<svg width="150" height="150" viewBox="0 0 150 150" fill="none" xmlns="http://www.w3.org/2000/svg">
<path d="M46.1971 42.128C63.7465 23.209 96.6443 45.2406 106.53 69.077C113.576 86.064 112.06 96.6099 100.959 115.837C89.8585 135.064 65.1655 99.498 44.4204 87.5208C23.6753 75.5436 34.1323 55.1344 46.1971 42.128Z" fill="#F82462" fill-opacity="0.2"/>
<g clip-path="url(#clip0)">
<rect x="36.9805" y="40" width="56" height="34" rx="3" fill="white"/>
<path d="M100.98 58L94.4805 55L91.9805 67L80.9805 72.5L41.4805 74.5V76.5L44.9805 85L47.4805 90H50.4805H53.9805L66.4805 85L82.4805 78.5L80.9805 85V90L84.4805 96V108.5H105.98L104.98 67L100.98 58Z" fill="white"/>
<path d="M95.9805 44V43.9987C95.9756 40.1354 92.845 37.0049 88.9817 37H88.9805L40.9805 37L40.9792 37C37.1159 37.0049 33.9854 40.1354 33.9805 43.9987V44L33.9805 70.4L33.9805 70.403C33.9907 73.768 36.3909 76.6144 39.6376 77.2415L43.9389 88.407L43.939 88.4071C45.3292 92.0144 49.3801 93.811 52.9872 92.4227L52.9874 92.4226L79.2156 82.319C77.9884 87.1442 78.7704 92.2985 81.4432 96.5709C81.4432 96.571 81.4433 96.571 81.4433 96.5711L81.9805 97.4301V108.8C81.9805 110.015 82.9652 111 84.1805 111H105.78C106.996 111 107.98 110.015 107.98 108.8V69.1895V69.1868C107.968 64.7728 106.211 60.5434 103.09 57.4215L95.9805 50.2991V44ZM96.1955 71.0632L95.9374 71.1629C95.9655 70.9107 95.9799 70.6568 95.9805 70.4022V70.4V63.2671L97.6891 67.7026C98.2047 69.0431 97.5366 70.5469 96.1965 71.0628L96.1955 71.0632ZM101.336 78.4445L97.9768 75.0853C101.449 73.6255 103.155 69.6603 101.794 66.1204L101.794 66.1199L99.4316 59.9865L99.9783 60.5344L99.9791 60.5352C102.276 62.8319 103.572 65.944 103.58 69.1922V94.6H85.4003L85.1737 94.2379C85.1737 94.2379 85.1736 94.2379 85.1736 94.2379C82.4433 89.8745 82.3347 84.3634 84.8901 79.8966C85.3654 79.0658 85.2487 78.0229 84.6018 77.3176L74.7694 66.5911C73.6693 65.3869 73.7314 63.5258 74.9087 62.3983C76.0871 61.2701 77.9493 61.2889 79.104 62.4391L98.225 81.5556L98.9322 82.2625L99.6392 81.5555L101.336 79.8587L102.043 79.1516L101.336 78.4445ZM74.6815 73H40.9805C39.545 73 38.3805 71.8355 38.3805 70.4V44C38.3805 42.5645 39.545 41.4 40.9805 41.4H88.9805C90.416 41.4 91.5805 42.5645 91.5805 44V50.6272H91.114L91.5805 51.8401V68.6888L82.214 59.3213L82.2141 59.3213L82.2057 59.3131C79.349 56.5223 74.7947 56.5007 71.9122 59.2625L71.9121 59.2627C69.0294 62.0258 68.8559 66.5766 71.5225 69.5494L71.5224 69.5495L71.5293 69.557L74.6815 73ZM51.4053 88.3162L51.4052 88.3162C50.0656 88.8327 48.5608 88.1649 48.0444 86.8248L46.3789 82.4938L59.616 77.3928H78.7128L78.9833 77.6878L51.4053 88.3162ZM44.4136 77.4H47.373L44.795 78.3926L44.4136 77.4ZM86.3805 106.6V99H103.58V106.6H86.3805Z" fill="#252525" stroke="white" stroke-width="2"/>
<path d="M48.6613 54.8001C50.3845 54.8001 51.7813 53.4033 51.7813 51.6801V45.92C51.7813 44.1968 50.3845 42.8 48.6613 42.8H42.9013C41.1781 42.8 39.7812 44.1968 39.7812 45.92V51.6801C39.7812 53.4033 41.1781 54.8001 42.9013 54.8001H48.6613ZM42.1813 51.6801V50.0001H44.5813V47.6H42.1813V45.92C42.1813 45.5225 42.5038 45.2 42.9013 45.2H48.6613C49.0588 45.2 49.3813 45.5225 49.3813 45.92V47.6H46.9813V50.0001H49.3813V51.6801C49.3813 52.0776 49.0588 52.4001 48.6613 52.4001H42.9013C42.5038 52.4001 42.1813 52.0776 42.1813 51.6801Z" fill="#252525"/>
<path d="M40.9805 58.4H45.7805V60.8H40.9805V58.4Z" fill="#252525"/>
<path d="M40.9805 65.6001H45.7805V68.0001H40.9805V65.6001Z" fill="#252525"/>
<path d="M62.582 65.6001H67.382V68.0001H62.582V65.6001Z" fill="#252525"/>
<path d="M48.1797 58.4H52.9797V60.8H48.1797V58.4Z" fill="#252525"/>
<path d="M55.3789 58.4H60.1789V60.8H55.3789V58.4Z" fill="#252525"/>
<path d="M62.582 58.4H67.382V60.8H62.582V58.4Z" fill="#252525"/>
<path d="M85.3789 44H87.7789V47.6H85.3789V44Z" fill="#252525"/>
<path d="M80.582 44H82.982V47.6H80.582V44Z" fill="#252525"/>
<path d="M75.7812 44H78.1813V47.6H75.7812V44Z" fill="#252525"/>
<path d="M70.9805 44H73.3804V47.6H70.9805V44Z" fill="#252525"/>
<path d="M87.7812 100.4H90.1812V102.8H87.7812V100.4Z" fill="#252525"/>
</g>
<defs>
<clipPath id="clip0">
<rect width="72" height="72" fill="white" transform="translate(34.9805 38)"/>
</clipPath>
</defs>
</svg>
